inDegrees=no
num_controls=7
num_derivatives=13
num_iterations=162
num_multipliers=7
num_parameters=0
num_slacks=7
num_states=26
objective=6.505969
objective_accelerations=0.666877
objective_balance=0.070038
objective_effort=0.542821
objective_height=5.202014
objective_ligament=0.024219
solver_duration=1389.838119
status=Solve_Succeeded
success=true
DataType=double
version=3
OpenSimVersion=4.4-2022-07-23-0e9fedc
endheader
time	/jointset/ground_pelvis/pelvis_tilt/value	/jointset/ground_pelvis/pelvis_tx/value	/jointset/ground_pelvis/pelvis_ty/value	/jointset/hip_r/hip_flexion_r/value	/jointset/hip_r/hip_adduction_r/value	/jointset/hip_r/hip_rotation_r/value	/jointset/back/lumbar_extension/value	/jointset/patellofemoral_r/patellar_flexion_r/value	/jointset/knee_r/knee_flexion_r/value	/jointset/knee_r/knee_adduction_r/value	/jointset/knee_r/knee_rotation_r/value	/jointset/ankle_r/ankle_angle_r/value	/jointset/subtalar_r/subtalar_angle_r/value	/jointset/ground_pelvis/pelvis_tilt/speed	/jointset/ground_pelvis/pelvis_tx/speed	/jointset/ground_pelvis/pelvis_ty/speed	/jointset/hip_r/hip_flexion_r/speed	/jointset/hip_r/hip_adduction_r/speed	/jointset/hip_r/hip_rotation_r/speed	/jointset/back/lumbar_extension/speed	/jointset/patellofemoral_r/patellar_flexion_r/speed	/jointset/knee_r/knee_flexion_r/speed	/jointset/knee_r/knee_adduction_r/speed	/jointset/knee_r/knee_rotation_r/speed	/jointset/ankle_r/ankle_angle_r/speed	/jointset/subtalar_r/subtalar_angle_r/speed	/forceset/tau_hip_flexion_r	/forceset/tau_hip_adduction_r	/forceset/tau_hip_rotation_r	/forceset/tau_knee_flexion_r	/forceset/tau_ankle_angle_r	/forceset/tau_subtalar_angle_r	/forceset/tau_lumbar_extension	lambda_cid13_p0	lambda_cid14_p0	lambda_cid14_p1	lambda_cid14_p2	lambda_cid14_p3	lambda_cid14_p4	lambda_cid14_p5	/jointset/ground_pelvis/pelvis_tilt/accel	/jointset/ground_pelvis/pelvis_tx/accel	/jointset/ground_pelvis/pelvis_ty/accel	/jointset/hip_r/hip_flexion_r/accel	/jointset/hip_r/hip_adduction_r/accel	/jointset/hip_r/hip_rotation_r/accel	/jointset/back/lumbar_extension/accel	/jointset/patellofemoral_r/patellar_flexion_r/accel	/jointset/knee_r/knee_flexion_r/accel	/jointset/knee_r/knee_adduction_r/accel	/jointset/knee_r/knee_rotation_r/accel	/jointset/ankle_r/ankle_angle_r/accel	/jointset/subtalar_r/subtalar_angle_r/accel	gamma_cid13_p0	gamma_cid14_p0	gamma_cid14_p1	gamma_cid14_p2	gamma_cid14_p3	gamma_cid14_p4	gamma_cid14_p5
0.5	-0.1842346935022686	0.02180827297553184	0.8200354450014968	0.9216031028379901	-0.2462618725786024	-0.07844117738257927	-0.3317364338050056	0.8441542207388167	0.844154220738809	0.06733389801012496	0.1745211094507492	0.2777684661164376	0.03782952427146998	-0.4868346730295511	-0.1548160645782621	-0.5034859332426374	2.039306749013802	-0.01370835683035184	0.4175457144117396	-0.5959856568302866	2.068851824811414	2.06885182481141	-0.2001261811236713	-6.288969410650052e-05	0.6137876549300261	0.1401544044365667	-0.1317981275501181	-0.01795705817733229	0.01620810384009996	-0.3509043098162867	0.06632969031200504	-0.007670503236031176	0.172246511159451	-22.59795459341925	-20.08643270035769	-3.23946986156556	-3.145710444055844	2.552450783294603	-659.4371551840977	59.12398358746628	0.3015811656436008	0.4427098237090423	-0.4986635227516827	-1.162258397417313	0.1474789316606628	-0.4908121342353959	1.595429151622231	-1.493504050496123	-1.493504050496135	0.3785481755510274	-0.03240980324581589	-0.7343430118874041	0.1074808801831338	-1.891724085207902e-07	-1.452582706495907e-07	1.69000728417952e-06	-9.789307346632623e-07	-9.999595839373887e-08	-2.426770678593713e-07	1.148796392292285e-06
0.51	-0.1890869748623048	0.02028246410448176	0.814976825049968	0.9419347326021699	-0.2463924896643667	-0.07429106488567251	-0.3376160782600276	0.8647650074068045	0.8647650074067956	0.065352929944596	0.1745204443070283	0.2838684296664609	0.03923494729044422	-0.4835532935666019	-0.1503279222249936	-0.5081217944108929	2.026742095254799	-0.01242027780970554	0.4124447141929238	-0.5798702071474907	2.053018410901135	2.053018410901118	-0.1960698185571303	-6.53990484100401e-05	0.6061186174558307	0.1409034947007999	-0.1388457496988341	-0.0164037610800698	0.01658812846455282	-0.3546966038343604	0.06291035713556579	-0.006607782034090902	0.1784774718529963	-21.2649924057358	-21.40973277975352	-3.121677789094432	-3.03650432014968	3.003496475389374	-664.4610932619252	59.32514734393804	0.3516473248991234	0.4545156722491484	-0.4286551461584951	-1.345153387399424	0.1186623774789825	-0.5248080230831725	1.63055693050296	-1.671287798489701	-1.671287798491631	0.4190289788312322	0.01638073944919143	-0.7961892620774617	0.05475900876149947	-1.799833187931449e-07	-1.437928557011807e-07	1.558063818661101e-06	-9.677274567232809e-07	-8.668445653364364e-08	-2.327894015408321e-07	1.065674485876971e-06
0.52	-0.193904396230056	0.01880206650318709	0.8098753249402973	0.962132398924313	-0.2465103879618834	-0.07019297520242818	-0.3433323774074413	0.8852088543882503	0.8852088543882372	0.06341249524105383	0.1745198645179592	0.2898891018123637	0.04064708839390434	-0.4798626745725093	-0.1457338106271804	-0.5120619648709933	2.012514060605492	-0.01116459918056477	0.4071411516789666	-0.5633165953089084	2.035463887503018	2.035463887502988	-0.1920195087255659	-4.58187638423147e-05	0.5979293741059613	0.1414980213337575	-0.1458933718475121	-0.01485046398280225	0.01696815308903797	-0.3584888978524314	0.05949102395912542	-0.005545060832144216	0.1847084325465767	-19.93027642653739	-22.73836302564841	-2.999300319328235	-2.93433332305489	3.451708024175395	-669.572465992435	59.59919486451177	0.3834290718722644	0.4639036726180028	-0.3595253811206685	-1.494934575478197	0.1409988533595487	-0.5313245932636794	1.683061582779495	-1.837725948063799	-1.837725948063791	0.3773376285557477	-0.02799187547153587	-0.838384187022178	0.07656815392803339	-1.703976608497364e-07	-1.430559833735123e-07	1.422386073735585e-06	-9.560188572237388e-07	-7.109576334420048e-08	-2.270084531365559e-07	9.78446869116404e-07
0.53	-0.1986828853545701	0.01736807560382631	0.8047379486247933	0.9821795897378779	-0.2466158396451465	-0.06614865795925316	-0.3488811349539342	0.9054686939162229	0.9054686939161902	0.06151254520858326	0.1745193589969788	0.2958253692082617	0.04206445562740414	-0.4757697262944406	-0.1410524019435191	-0.5152931003550412	1.996656994737606	-0.00993196635221486	0.4016948055659664	-0.546377051063584	2.016230703396722	2.016230703396697	-0.1879713694255307	-5.19556621702641e-05	0.5892447312271665	0.1419472871373463	-0.1528281253494978	-0.01338157574980588	0.01733443231309907	-0.3623945357448562	0.05618108278229168	-0.004637143621459873	0.1908191345036211	-18.60225221539973	-24.04432910825348	-2.950703119278764	-2.808386101631113	3.929850972449589	-674.7453307021954	59.76880771047738	0.4320270905465597	0.4720419800196456	-0.2869227452223376	-1.671176492869818	0.1134121151701331	-0.555642937969108	1.708080284231641	-2.007078773578705	-2.007078773578049	0.4185930846765912	0.01341832791292862	-0.8954440339107053	0.0249863393491113	-1.612578386364406e-07	-1.408043920289413e-07	1.289358870603895e-06	-9.422022152352768e-07	-5.770484810205532e-08	-2.171248121534463e-07	8.896431384760409e-07
0.54	-0.2034184851193493	0.01598125529405808	0.7995718579318136	1.002060193112682	-0.2467091616766078	-0.06215967484073769	-0.3542587611702083	0.9255280087767997	0.9255280087767441	0.05965308476989767	0.1745188606920024	0.301672402236251	0.0434854916280947	-0.4712848026254742	-0.1362996927086714	-0.5178048403661168	1.979196572852682	-0.008738668819966038	0.3960743267469278	-0.5290903292653515	1.995358954023775	1.995358954023754	-0.1839215899675277	-4.43755634455852e-05	0.5800825005242695	0.1422317747719275	-0.159762878851457	-0.01191268751681106	0.01770071153719976	-0.3663001736372802	0.05287114160545508	-0.003729226410778766	0.196929836460691	-17.28456780120386	-25.353938707515	-2.897992789274922	-2.688521922546692	4.399278971805221	-679.9799395761146	60.00408714242481	0.4618241500518061	0.478163782855337	-0.215646286526263	-1.815605778885879	0.1331317941393299	-0.5661511344713825	1.752497093361094	-2.165439001394159	-2.165439001394177	0.3776656601493253	-0.02524847606099475	-0.9339017518425159	0.04361252012650413	-1.526112814862483e-07	-1.368769413465205e-07	1.159264181797287e-06	-9.260532709186478e-07	-4.674551697181434e-08	-2.027020219341804e-07	7.990956222665413e-07
0.55	-0.2081073807332345	0.01464227645144527	0.7943842740268623	1.021758362458394	-0.2467906708873562	-0.05822764004692697	-0.3594618839772611	0.945370569687685	0.9453705696876912	0.05783401647033695	0.1745183459906475	0.3074255499109618	0.04490865050422123	-0.4664344636042377	-0.1314876652627544	-0.5195882593450151	1.960177984331064	-0.007568711488895133	0.3902959694392005	-0.5114905224166216	1.97289093598236	1.972890935982347	-0.1799032162822202	-5.096970175446128e-05	0.5704771828271655	0.1423737265874832	-0.1664601173404616	-0.0107826933200166	0.01805768974451223	-0.3705047764998442	0.04993350928136643	-0.002850625627834401	0.2028314054469984	-15.97990475971612	-26.54885396085412	-2.833450757048362	-2.575662756655881	4.808654602116042	-685.2552392535976	60.32149079900567	0.5056034796297358	0.4839756547043783	-0.1411764787055746	-1.98389925051799	0.1080308392133238	-0.5893824795084662	1.770278939829243	-2.326797452169839	-2.326797452168471	0.4123906425507304	0.01262035710476082	-0.9843516335163657	-0.004390910505541214	-1.414190442776682e-07	-1.288779807524056e-07	1.035605962850708e-06	-8.802702014925548e-07	-3.902058506267345e-08	-1.855339236029286e-07	7.121486774659896e-07
0.5600000000000001	-0.2127459800166136	0.01335166856914055	0.7891825585770952	1.041258563146549	-0.2468606598974701	-0.05435452971631111	-0.3644876974239857	0.9649805875688265	0.9649805875688903	0.05605482539159193	0.1745179623958749	0.3130805434377271	0.04633245341394808	-0.4612255365241932	-0.1266255006470514	-0.520631149329281	1.93960284134072	-0.006434628692926496	0.3842894341080688	-0.4936284571998797	1.94885034807476	1.948850348074756	-0.1759461458037413	-1.815424724089203e-05	0.5604516709351807	0.1423605814920134	-0.1731573558294512	-0.009652699123229093	0.0184146679518584	-0.3747093793624088	0.04699587695727363	-0.001972024844901685	0.2087329744333216	-14.69048830278644	-27.74739699060183	-2.764754676528893	-2.468936788622536	5.207613177364687	-690.5938090197911	60.70104274273771	0.5335417618133699	0.4881912168125661	-0.06754048759979295	-2.126916672631027	0.1259568871188776	-0.6117867391522884	1.804948766963497	-2.479952974631138	-2.47995297463113	0.3654050187836	-0.01736655749649388	-1.017940590818642	0.01259313792142094	-1.271719909990226e-07	-1.159932082642581e-07	9.196715077361645e-07	-7.989261819351061e-07	-3.517693221885254e-08	-1.65071455537294e-07	6.295224183561753e-07
0.5700000000000001	-0.2173307309214174	0.01210984572230509	0.7839741155542351	1.060545437859645	-0.2469194356575148	-0.05054216257231497	-0.3693337051681432	0.9843425433723183	0.984342543372305	0.05431508370521672	0.1745177503081618	0.3186332559696511	0.04775540004342433	-0.455663669769237	-0.12173877498994	-0.5209332303009437	1.917523173018783	-0.005332194433542044	0.3781890070322838	-0.4755457409733842	1.92329412079637	1.923294120796357	-0.1719718291308258	-3.295650329582026e-05	0.5500235308400554	0.142191526884113	-0.179823825272717	-0.008123780168138653	0.01877592512993917	-0.3786800135387757	0.0437851164345166	-0.001454714799939113	0.214535575066147	-13.41806777826513	-29.04830675333674	-2.912642954046453	-2.279990095997324	5.770982410331932	-695.8384263200942	60.64687701349607	0.5766437589748596	0.4889506992434049	0.007061139982565377	-2.285845325537831	0.1005753217866053	-0.60858390889588	1.814035649147567	-2.6304375559311	-2.630437555932478	0.4181105649774324	0.005033109491595522	-1.065367935164643	-0.03719135802398823	-8.829141822012225e-08	-5.158080428538574e-08	1.039368007777636e-06	-3.457681286005606e-07	-9.461951680554145e-08	-1.102351936607682e-07	7.069906684610858e-07
0.58	-0.2218580362333445	0.01091689762385737	0.7787663723300448	1.07960404520681	-0.2469675493496784	-0.04679068234250074	-0.3739980652303043	1.00344154091273	1.003441540912635	0.05261601830025203	0.1745171042317223	0.3240796636573629	0.04917554880724584	-0.4497364179487538	-0.1168505509695034	-0.5204911895953326	1.893949368154335	-0.004302215116614034	0.3721120512723243	-0.4572989208006902	1.896258695458454	1.896258695458432	-0.1678108895206314	-0.0001049519932887008	0.5391907020927235	0.1418010083610839	-0.1864902947159779	-0.006594861213068918	0.01913718230811349	-0.382650647715145	0.0405743559117521	-0.000937404755007526	0.2203381756989802	-12.16396639639105	-30.35358911342341	-3.059033728113828	-2.093867295424794	6.327387995704001	-701.1512480195321	60.64428537335989	0.6066187749187313	0.4884908894776678	0.08128384785494862	-2.42574398113335	0.1114658986275984	-0.6070924759871819	1.83776955620318	-2.775792586536264	-2.775792586536264	0.4027296062393721	-0.0288052042840684	-1.098878321259928	-0.03169964510429436	-1.732998283624091e-08	7.993735233256646e-08	1.465932728487393e-06	5.916128524436663e-07	-2.364813873482389e-07	-1.063306077471226e-08	9.929540933572559e-07
